<?xml version="1.0" standalone="no"?>
<!DOCTYPE svg PUBLIC "-//W3C//DTD SVG 20010904//EN"
 "http://www.w3.org/TR/2001/REC-SVG-20010904/DTD/svg10.dtd">
<svg version="1.0" xmlns="http://www.w3.org/2000/svg"
 width="1200.000000pt" height="1200.000000pt" viewBox="0 0 1200.000000 1200.000000"
 preserveAspectRatio="xMidYMid meet">
<metadata>
Created by potrace 1.14, written by Peter Selinger 2001-2017
</metadata>
<g transform="translate(0.000000,1200.000000) scale(0.100000,-0.100000)"
fill="#000000" stroke="none">
<path d="M1000 8995 l0 -2005 1005 0 1005 0 0 1000 0 1000 1000 0 1000 0 0
1005 0 1005 -2005 0 -2005 0 0 -2005z"/>
<path d="M7000 9995 l0 -1005 1000 0 1000 0 0 -1995 0 -1995 -1000 0 -1000 0
0 -1000 0 -1000 -1000 0 -1000 0 0 -1000 0 -1000 2005 0 2005 0 1 1413 c0
1392 0 1411 19 1342 52 -199 140 -347 291 -490 269 -255 645 -339 994 -224
264 88 486 284 600 532 71 155 80 201 80 422 0 182 -2 207 -23 275 -53 166
-123 289 -237 409 -143 151 -291 239 -490 291 l-70 19 413 0 412 1 0 2005 0
2005 -995 0 -995 0 0 1000 0 1000 -1005 0 -1005 0 0 -1005z m2765 -5025 c-185
-48 -315 -122 -453 -254 -143 -138 -231 -287 -282 -481 l-19 -70 0 413 -1 412
413 -1 412 0 -70 -19z"/>
<path d="M5855 6989 c-127 -18 -289 -81 -402 -156 -73 -48 -192 -160 -249
-235 -126 -163 -204 -394 -204 -603 0 -209 78 -440 204 -603 328 -426 911
-526 1356 -233 70 46 190 159 246 233 256 332 270 802 35 1158 -46 70 -159
190 -233 246 -205 158 -489 231 -753 193z"/>
<path d="M1000 3000 l0 -2000 1005 0 1005 0 0 2000 0 2000 -1005 0 -1005 0 0
-2000z"/>
</g>
</svg>
